<svg xmlns="http://www.w3.org/2000/svg" viewBox="0 0 512 512" fill="none">
  <rect width="512" height="512" rx="108" fill="#2d6a4f"/>
  <rect x="96" y="120" width="320" height="280" rx="28" fill="#1b4332" stroke="#95d5b2" stroke-width="12"/>
  <path d="M160 160h192" stroke="#95d5b2" stroke-width="14" stroke-linecap="round"/>
  <rect x="176" y="200" width="72" height="12" rx="4" fill="#40916c"/>
  <rect x="264" y="200" width="120" height="12" rx="4" fill="#52b788"/>
  <rect x="176" y="236" width="96" height="12" rx="4" fill="#40916c"/>
  <rect x="288" y="236" width="96" height="12" rx="4" fill="#52b788"/>
  <rect x="176" y="272" width="140" height="12" rx="4" fill="#40916c"/>
  <rect x="148" y="88" width="216" height="56" rx="10" fill="#d8f3dc"/>
  <rect x="168" y="104" width="24" height="24" fill="#1b4332"/>
  <rect x="200" y="104" width="4" height="24" fill="#1b4332"/>
  <rect x="212" y="104" width="16" height="24" fill="#1b4332"/>
  <rect x="236" y="104" width="4" height="24" fill="#1b4332"/>
  <rect x="248" y="104" width="24" height="24" fill="#1b4332"/>
  <rect x="280" y="104" width="4" height="24" fill="#1b4332"/>
  <rect x="292" y="104" width="16" height="24" fill="#1b4332"/>
  <rect x="316" y="104" width="4" height="24" fill="#1b4332"/>
  <rect x="328" y="104" width="8" height="24" fill="#1b4332"/>
</svg>
